<?xml version="1.0" encoding="UTF-8"?>
<svg width="137px" height="28px" viewBox="0 0 137 28" version="1.1" xmlns="http://www.w3.org/2000/svg" xmlns:xlink="http://www.w3.org/1999/xlink">
    <!-- Generator: Sketch 51.3 (57544) - http://www.bohemiancoding.com/sketch -->
    <title>logo</title>
    <desc>Created with Sketch.</desc>
    <defs>
        <polygon id="path-1" points="0.0206566038 0.107654717 18.6701887 0.107654717 18.6701887 27.3046358 0.0206566038 27.3046358"></polygon>
        <polygon id="path-3" points="0 0.0701981132 20.5918075 0.0701981132 20.5918075 20.5842925 0 20.5842925"></polygon>
    </defs>
    <g id="Desktop-Web" stroke="none" stroke-width="1" fill="none" fill-rule="evenodd">
        <g id="contact-page" transform="translate(-150.000000, -909.000000)">
            <g id="footer" transform="translate(0.000000, 769.000000)">
                <g id="logo" transform="translate(150.000000, 140.000000)">
                    <path d="M42.1548717,15.4013208 L42.1548717,27.3290566 L36.3270415,27.3290566 L36.3270415,16.2559811 C36.3270415,13.8471887 34.8114755,12.7204528 32.9467019,12.7204528 C30.8097208,12.7204528 29.3333811,13.9638113 29.3333811,16.7222075 L29.3333811,27.3290566 L23.5055509,27.3290566 L23.5055509,7.90260377 L29.3333811,7.90260377 L29.3333811,9.72867925 C30.3824566,8.29116981 32.3248906,7.35871698 34.8894,7.35871698 C38.8134943,7.35871698 42.1548717,10.1562075 42.1548717,15.4013208" id="Fill-1" fill="#4E44D8"></path>
                    <path d="M53.1491906,13.4975849 L53.1491906,20.3744906 C53.1491906,22.0449811 54.5867,22.200566 57.1512094,22.0449811 L57.1512094,27.3290566 C49.5360019,28.1060566 47.3213604,25.8137547 47.3213604,20.3744906 L47.3213604,13.4975849 L44.2132283,13.4975849 L44.2132283,7.90260377 L47.3213604,7.90260377 L47.3213604,2.46333962 L53.1491906,2.46333962 L53.1491906,7.90260377 L57.1512094,7.90260377 L57.1512094,13.4975849 L53.1491906,13.4975849 Z" id="Fill-3" fill="#4E44D8"></path>
                    <path d="M72.1089283,7.51413019 L72.1089283,13.3789415 C69.7000038,12.9905075 66.280966,14.7018094 66.280966,18.5483755 L66.280966,27.329017 L60.4531358,27.329017 L60.4531358,7.90256415 L66.280966,7.90256415 L66.280966,10.3493943 C67.0580981,7.74618679 69.6610415,7.51413019 72.1089283,7.51413019" id="Fill-5" fill="#4E44D8"></path>
                    <path d="M96.6726415,17.6159755 C96.6726415,11.8267113 101.062698,7.35873019 106.968849,7.35873019 C110.737094,7.35873019 114.078604,9.34025849 115.749358,12.3319 L110.659698,15.2847113 C109.999189,13.9248623 108.600377,13.1090321 106.890925,13.1090321 C104.365642,13.1090321 102.50034,14.9351075 102.50034,17.6159755 C102.50034,20.2968434 104.365642,22.1226547 106.890925,22.1226547 C108.600377,22.1226547 110.037887,21.3068245 110.659698,19.9469755 L115.749358,22.8610887 C114.078604,25.8914283 110.776321,27.8728245 106.968849,27.8728245 C101.062698,27.8728245 96.6726415,23.4048434 96.6726415,17.6159755" id="Fill-7" fill="#4E44D8"></path>
                    <g id="Group-11" transform="translate(117.547170, 0.024434)">
                        <mask id="mask-2" fill="white">
                            <use xlink:href="#path-1"></use>
                        </mask>
                        <g id="Clip-10"></g>
                        <polygon id="Fill-9" fill="#4E44D8" mask="url(#mask-2)" points="12.064883 27.3046358 5.84888302 18.7181453 5.84888302 27.3046358 0.0206566038 27.3046358 0.0206566038 0.107654717 5.84888302 0.107654717 5.84888302 16.3870132 11.6764491 7.87818302 18.4756943 7.87818302 11.4045057 17.5915415 18.6702415 27.3046358"></polygon>
                    </g>
                    <g id="Group-14" transform="translate(0.000000, 7.288585)">
                        <mask id="mask-4" fill="white">
                            <use xlink:href="#path-3"></use>
                        </mask>
                        <g id="Clip-13"></g>
                        <path d="M10.2958642,0.0701981132 C4.5846566,0.0701981132 -7.9245283e-05,4.53817925 -7.9245283e-05,10.3274434 C-7.9245283e-05,16.1163113 4.5846566,20.5842925 10.2958642,20.5842925 C16.0072038,20.5842925 20.5918075,16.1163113 20.5918075,10.3274434 C20.5918075,4.53817925 16.0072038,0.0701981132 10.2958642,0.0701981132" id="Fill-12" fill="#4E44D8" mask="url(#mask-4)"></path>
                    </g>
                    <path d="M84.1060038,22.3558604 C81.4251358,22.3558604 79.4824377,20.5297849 79.4824377,17.6159358 C79.4824377,14.7018226 81.4251358,12.8757472 84.1060038,12.8757472 C86.7868717,12.8757472 88.7293057,14.7018226 88.7293057,17.6159358 C88.7293057,20.5297849 86.7868717,22.3558604 84.1060038,22.3558604 M84.1058717,7.35882264 C78.3945321,7.35882264 73.8099283,11.8268038 73.8099283,17.6159358 C73.8099283,23.4048038 78.3945321,27.8727849 84.1058717,27.8727849 C84.1192113,27.8727849 84.1324189,27.8719925 84.1457585,27.8719925 L84.1252868,27.8923321 L94.401683,27.8923321 L94.401683,17.6159358 C94.401683,11.8268038 89.8170792,7.35882264 84.1058717,7.35882264" id="Fill-15" fill="#4E44D8"></path>
                </g>
            </g>
        </g>
    </g>
</svg>